<svg width="32" height="32" viewBox="0 0 32 32" fill="none" xmlns="http://www.w3.org/2000/svg">
<path d="M16.4634 25.7398C22.6099 25.7398 27.5939 21.1714 27.5939 15.5369C27.5939 9.90241 22.6099 5.33398 16.4634 5.33398C10.317 5.33398 5.33301 9.90241 5.33301 15.5369C5.33301 18.1389 6.39535 20.5122 8.14406 22.3141C8.67832 22.8669 9.05923 23.6003 8.86878 24.3435C8.66023 25.1563 8.26993 25.9111 7.72729 26.5511C8.16155 26.6291 8.60194 26.668 9.04315 26.6673C10.6286 26.6673 12.0978 26.1702 13.3036 25.323C14.3054 25.5951 15.3665 25.7398 16.4634 25.7398Z" stroke="url(#paint0_linear_2576_19019)" stroke-width="2" stroke-linecap="round" stroke-linejoin="round"/>
<defs>
<linearGradient id="paint0_linear_2576_19019" x1="40.499" y1="33.001" x2="4.99902" y2="-5.49902" gradientUnits="userSpaceOnUse">
<stop stop-color="#02C0BC"/>
<stop offset="1" stop-color="#1B34E3"/>
</linearGradient>
</defs>
</svg>
